<svg width="173" height="32" viewBox="0 0 173 32" fill="none" xmlns="http://www.w3.org/2000/svg">
<g clip-path="url(#clip0_1_54)">
<path d="M172.563 1.77777H157.156V3.67407H172.563V1.77777Z" fill="#FFEB60"/>
<path d="M0.746704 16C0.746704 14.5351 1.07382 13.2267 1.72804 12.0747C2.39648 10.9084 3.29959 10.0053 4.43737 9.36534C5.58937 8.71112 6.87648 8.384 8.2987 8.384C9.9627 8.384 11.4205 8.81067 12.672 9.664C13.9236 10.5173 14.7983 11.6978 15.296 13.2053H11.8614C11.52 12.4942 11.0365 11.9609 10.4107 11.6053C9.79915 11.2498 9.08804 11.072 8.27737 11.072C7.40981 11.072 6.6347 11.2782 5.95204 11.6907C5.28359 12.0889 4.75737 12.6578 4.37337 13.3973C4.00359 14.1369 3.8187 15.0044 3.8187 16C3.8187 16.9813 4.00359 17.8489 4.37337 18.6027C4.75737 19.3422 5.28359 19.9182 5.95204 20.3307C6.6347 20.7289 7.40981 20.928 8.27737 20.928C9.08804 20.928 9.79915 20.7502 10.4107 20.3947C11.0365 20.0249 11.52 19.4844 11.8614 18.7733H15.296C14.7983 20.2951 13.9236 21.4827 12.672 22.336C11.4347 23.1751 9.97692 23.5947 8.2987 23.5947C6.87648 23.5947 5.58937 23.2747 4.43737 22.6347C3.29959 21.9804 2.39648 21.0773 1.72804 19.9253C1.07382 18.7733 0.746704 17.4649 0.746704 16ZM30.5404 8.576L25.5057 18.2827V23.4667H22.519V18.2827L17.463 8.576H20.8337L24.0337 15.3813L27.2124 8.576H30.5404ZM45.8522 23.4667H42.8656L36.1029 13.248V23.4667H33.1162V8.55467H36.1029L42.8656 18.7947V8.55467H45.8522V23.4667ZM52.6437 8.576V23.4667H49.657V8.576H52.6437ZM55.7226 16C55.7226 14.5351 56.0497 13.2267 56.7039 12.0747C57.3724 10.9084 58.2755 10.0053 59.4132 9.36534C60.5653 8.71112 61.8524 8.384 63.2746 8.384C64.9386 8.384 66.3964 8.81067 67.6479 9.664C68.8995 10.5173 69.7741 11.6978 70.2719 13.2053H66.8372C66.4959 12.4942 66.0124 11.9609 65.3866 11.6053C64.775 11.2498 64.0639 11.072 63.2532 11.072C62.3857 11.072 61.6106 11.2782 60.9279 11.6907C60.2595 12.0889 59.7332 12.6578 59.3493 13.3973C58.9795 14.1369 58.7946 15.0044 58.7946 16C58.7946 16.9813 58.9795 17.8489 59.3493 18.6027C59.7332 19.3422 60.2595 19.9182 60.9279 20.3307C61.6106 20.7289 62.3857 20.928 63.2532 20.928C64.0639 20.928 64.775 20.7502 65.3866 20.3947C66.0124 20.0249 66.4959 19.4844 66.8372 18.7733H70.2719C69.7741 20.2951 68.8995 21.4827 67.6479 22.336C66.4106 23.1751 64.9528 23.5947 63.2746 23.5947C61.8524 23.5947 60.5653 23.2747 59.4132 22.6347C58.2755 21.9804 57.3724 21.0773 56.7039 19.9253C56.0497 18.7733 55.7226 17.4649 55.7226 16ZM84.7542 23.616C83.7159 23.616 82.7773 23.4382 81.9382 23.0827C81.1133 22.7271 80.4591 22.2151 79.9755 21.5467C79.492 20.8782 79.243 20.0889 79.2288 19.1787H82.4288C82.4715 19.7902 82.6848 20.2738 83.0688 20.6293C83.4671 20.9849 84.0075 21.1627 84.6902 21.1627C85.3871 21.1627 85.9346 20.9991 86.3328 20.672C86.731 20.3307 86.9302 19.8898 86.9302 19.3493C86.9302 18.9084 86.7951 18.5458 86.5248 18.2613C86.2546 17.9769 85.9133 17.7564 85.5008 17.6C85.1026 17.4293 84.5479 17.2444 83.8368 17.0453C82.8697 16.7609 82.0804 16.4836 81.4688 16.2133C80.8715 15.9289 80.3524 15.5093 79.9115 14.9547C79.4848 14.3858 79.2715 13.632 79.2715 12.6933C79.2715 11.8116 79.4919 11.0436 79.9328 10.3893C80.3737 9.73512 80.9924 9.23734 81.7888 8.896C82.5853 8.54045 83.4955 8.36267 84.5195 8.36267C86.0555 8.36267 87.2999 8.73956 88.2528 9.49334C89.2199 10.2329 89.7533 11.2711 89.8528 12.608H86.5675C86.5391 12.096 86.3186 11.6764 85.9062 11.3493C85.5079 11.008 84.9746 10.8373 84.3062 10.8373C83.7231 10.8373 83.2537 10.9867 82.8982 11.2853C82.5568 11.584 82.3862 12.0178 82.3862 12.5867C82.3862 12.9849 82.5142 13.3191 82.7702 13.5893C83.0404 13.8453 83.3675 14.0587 83.7515 14.2293C84.1497 14.3858 84.7044 14.5707 85.4155 14.784C86.3826 15.0684 87.1719 15.3529 87.7835 15.6373C88.3951 15.9218 88.9213 16.3484 89.3622 16.9173C89.8031 17.4862 90.0235 18.2329 90.0235 19.1573C90.0235 19.9538 89.8173 20.6933 89.4048 21.376C88.9924 22.0587 88.3879 22.6062 87.5915 23.0187C86.7951 23.4169 85.8493 23.616 84.7542 23.616ZM100.378 23.616C98.9844 23.616 97.7044 23.2889 96.5382 22.6347C95.372 21.9804 94.4476 21.0773 93.7649 19.9253C93.0822 18.7591 92.7409 17.4436 92.7409 15.9787C92.7409 14.528 93.0822 13.2267 93.7649 12.0747C94.4476 10.9084 95.372 9.99823 96.5382 9.344C97.7044 8.68978 98.9844 8.36267 100.378 8.36267C101.786 8.36267 103.066 8.68978 104.218 9.344C105.384 9.99823 106.302 10.9084 106.97 12.0747C107.653 13.2267 107.994 14.528 107.994 15.9787C107.994 17.4436 107.653 18.7591 106.97 19.9253C106.302 21.0773 105.384 21.9804 104.218 22.6347C103.052 23.2889 101.772 23.616 100.378 23.616ZM100.378 20.9493C101.274 20.9493 102.064 20.7502 102.746 20.352C103.429 19.9396 103.962 19.3564 104.346 18.6027C104.73 17.8489 104.922 16.9742 104.922 15.9787C104.922 14.9831 104.73 14.1156 104.346 13.376C103.962 12.6222 103.429 12.0462 102.746 11.648C102.064 11.2498 101.274 11.0507 100.378 11.0507C99.4822 11.0507 98.6858 11.2498 97.9889 11.648C97.3062 12.0462 96.7729 12.6222 96.3889 13.376C96.0049 14.1156 95.8129 14.9831 95.8129 15.9787C95.8129 16.9742 96.0049 17.8489 96.3889 18.6027C96.7729 19.3564 97.3062 19.9396 97.9889 20.352C98.6858 20.7502 99.4822 20.9493 100.378 20.9493ZM110.344 16C110.344 14.5351 110.671 13.2267 111.326 12.0747C111.994 10.9084 112.897 10.0053 114.035 9.36534C115.187 8.71112 116.474 8.384 117.896 8.384C119.56 8.384 121.018 8.81067 122.27 9.664C123.521 10.5173 124.396 11.6978 124.894 13.2053H121.459C121.118 12.4942 120.634 11.9609 120.008 11.6053C119.397 11.2498 118.686 11.072 117.875 11.072C117.007 11.072 116.232 11.2782 115.55 11.6907C114.881 12.0889 114.355 12.6578 113.971 13.3973C113.601 14.1369 113.416 15.0044 113.416 16C113.416 16.9813 113.601 17.8489 113.971 18.6027C114.355 19.3422 114.881 19.9182 115.55 20.3307C116.232 20.7289 117.007 20.928 117.875 20.928C118.686 20.928 119.397 20.7502 120.008 20.3947C120.634 20.0249 121.118 19.4844 121.459 18.7733H124.894C124.396 20.2951 123.521 21.4827 122.27 22.336C121.032 23.1751 119.575 23.5947 117.896 23.5947C116.474 23.5947 115.187 23.2747 114.035 22.6347C112.897 21.9804 111.994 21.0773 111.326 19.9253C110.671 18.7733 110.344 17.4649 110.344 16ZM131.284 8.576V23.4667H128.298V8.576H131.284ZM138.075 10.9867V14.72H143.089V17.088H138.075V21.0347H143.729V23.4667H135.089V8.55467H143.729V10.9867H138.075ZM157.429 8.576V10.9867H153.461V23.4667H150.475V10.9867H146.507V8.576H157.429ZM172.302 8.576L167.268 18.2827V23.4667H164.281V18.2827L159.225 8.576H162.596L165.796 15.3813L168.974 8.576H172.302Z" fill="#FFEB60"/>
<path d="M86.0445 15.0519H66.6074V16.9482H86.0445V15.0519Z" fill="#FFEB60"/>
<path d="M15.4074 28.563H0V30.4593H15.4074V28.563Z" fill="#FFEB60"/>
</g>
<defs>
<clipPath id="clip0_1_54">
<rect width="172.563" height="32" fill="white"/>
</clipPath>
</defs>
</svg>
